<svg width="1200" height="1600" viewBox="0 0 1200 1600" fill="none" xmlns="http://www.w3.org/2000/svg">
  <rect width="1200" height="1600" fill="#E6F0FB"/>
  <circle cx="954" cy="288" r="260" fill="#B9D0F0"/>
  <circle cx="202" cy="1308" r="284" fill="#C9DBF1"/>
  <rect x="124" y="168" width="952" height="1268" rx="76" fill="#F8FBFF" stroke="#B6CBE6" stroke-width="8"/>
  <path d="M358 378H844" stroke="#7D9ECB" stroke-width="18" stroke-linecap="round"/>
  <path d="M358 468H790" stroke="#7D9ECB" stroke-width="18" stroke-linecap="round"/>
  <path d="M358 558H732" stroke="#7D9ECB" stroke-width="18" stroke-linecap="round"/>
  <path d="M620 774C680 686 756 604 756 526C756 440 686 370 600 370C514 370 444 440 444 526C444 604 520 686 580 774L600 804L620 774Z" fill="#6E92C6"/>
  <path d="M462 1016C540 922 660 922 738 1016" stroke="#6E92C6" stroke-width="18" stroke-linecap="round"/>
  <path d="M444 1144H756" stroke="#8AA8CE" stroke-width="18" stroke-linecap="round"/>
  <path d="M420 1238H780" stroke="#8AA8CE" stroke-width="18" stroke-linecap="round"/>
  <text x="600" y="1340" text-anchor="middle" fill="#45668A" font-family="Georgia, serif" font-size="68">Rain Letters</text>
  <text x="600" y="1418" text-anchor="middle" fill="#6C88AA" font-family="Arial, sans-serif" font-size="34">Preview art for monsoon moods and voice notes</text>
</svg>
